<svg width="29" height="28" viewBox="0 0 29 28" fill="none" xmlns="http://www.w3.org/2000/svg">
<mask id="mask0_1223_189610" style="mask-type:alpha" maskUnits="userSpaceOnUse" x="0" y="0" width="29" height="28">
<path d="M14.1128 0H28.2256V28H14.1128H0V0H14.1128Z" fill="white"/>
</mask>
<g mask="url(#mask0_1223_189610)">
<path fill-rule="evenodd" clip-rule="evenodd" d="M16.7194 23.4605L15.1013 22.7864V28H20.8995L28.2258 24.5392L24.3596 9.34857L14.1125 0L3.86465 9.34857L0 24.5392L7.2806 28H13.0787V22.7864C11.2809 23.7457 9.60233 24.1649 8.04547 24.0448C4.95809 23.8348 3.99949 21.0637 5.16888 15.73C5.58812 13.7532 6.78696 11.5052 8.76384 8.98901C10.5919 6.71154 12.2844 5.13846 13.8428 4.26978L14.1125 4.13495C15.6105 4.88351 17.3185 6.44187 19.2364 8.80923C21.304 11.3858 22.578 13.6927 23.0569 15.73C24.2255 21.0637 23.2514 23.8348 20.1354 24.0448C19.1465 24.1053 18.0074 23.91 16.7194 23.4605Z" fill="#FEBB04"/>
</g>
</svg>
